<mxfile host="Electron" agent="Mozilla/5.0 (Windows NT 10.0; Win64; x64) AppleWebKit/537.36 (KHTML, like Gecko) draw.io/28.1.2 Chrome/138.0.7204.243 Electron/37.4.0 Safari/537.36" version="28.1.2">
  <diagram name="Page-1" id="D5VMBiD41HwFwBxThZXp">
    <mxGraphModel dx="1042" dy="626" grid="1" gridSize="10" guides="1" tooltips="1" connect="1" arrows="1" fold="1" page="1" pageScale="1" pageWidth="827" pageHeight="1169" math="0" shadow="0">
      <root>
        <mxCell id="0" />
        <mxCell id="1" parent="0" />
        <mxCell id="FIlMtWc95_Qz1W8rLRXP-1" value="NWR CR" style="html=1;whiteSpace=wrap;labelBackgroundColor=none;fillColor=#5D7F99;strokeColor=#D0CEE2;fontColor=#1A1A1A;" vertex="1" parent="1">
          <mxGeometry x="30" y="535" width="110" height="50" as="geometry" />
        </mxCell>
        <mxCell id="FIlMtWc95_Qz1W8rLRXP-2" value="Edit Contract" style="html=1;whiteSpace=wrap;labelBackgroundColor=none;fillColor=#5D7F99;strokeColor=#D0CEE2;fontColor=#1A1A1A;" vertex="1" parent="1">
          <mxGeometry x="414" y="535" width="110" height="50" as="geometry" />
        </mxCell>
        <mxCell id="FIlMtWc95_Qz1W8rLRXP-3" value="Users" style="html=1;whiteSpace=wrap;labelBackgroundColor=none;fillColor=#5D7F99;strokeColor=#D0CEE2;fontColor=#1A1A1A;" vertex="1" parent="1">
          <mxGeometry x="240" y="250" width="110" height="50" as="geometry" />
        </mxCell>
        <mxCell id="FIlMtWc95_Qz1W8rLRXP-4" value="Delete user" style="html=1;whiteSpace=wrap;labelBackgroundColor=none;fillColor=#5D7F99;strokeColor=#D0CEE2;fontColor=#1A1A1A;" vertex="1" parent="1">
          <mxGeometry x="414" y="280" width="110" height="50" as="geometry" />
        </mxCell>
        <mxCell id="FIlMtWc95_Qz1W8rLRXP-5" value="Manage Contract" style="html=1;whiteSpace=wrap;labelBackgroundColor=none;fillColor=#5D7F99;strokeColor=#D0CEE2;fontColor=#1A1A1A;" vertex="1" parent="1">
          <mxGeometry x="240" y="535" width="110" height="50" as="geometry" />
        </mxCell>
        <mxCell id="FIlMtWc95_Qz1W8rLRXP-6" value="Create Contract" style="html=1;whiteSpace=wrap;labelBackgroundColor=none;fillColor=#5D7F99;strokeColor=#D0CEE2;fontColor=#1A1A1A;" vertex="1" parent="1">
          <mxGeometry x="414" y="470" width="110" height="50" as="geometry" />
        </mxCell>
        <mxCell id="FIlMtWc95_Qz1W8rLRXP-7" value="Delete Contract" style="html=1;whiteSpace=wrap;labelBackgroundColor=none;fillColor=#5D7F99;strokeColor=#D0CEE2;fontColor=#1A1A1A;" vertex="1" parent="1">
          <mxGeometry x="414" y="600" width="110" height="50" as="geometry" />
        </mxCell>
        <mxCell id="FIlMtWc95_Qz1W8rLRXP-8" value="Download Contracts" style="html=1;whiteSpace=wrap;labelBackgroundColor=none;fillColor=#5D7F99;strokeColor=#D0CEE2;fontColor=#1A1A1A;" vertex="1" parent="1">
          <mxGeometry x="414" y="830" width="110" height="50" as="geometry" />
        </mxCell>
        <mxCell id="FIlMtWc95_Qz1W8rLRXP-9" value="Dashboard" style="html=1;whiteSpace=wrap;labelBackgroundColor=none;fillColor=#5D7F99;strokeColor=#D0CEE2;fontColor=#1A1A1A;" vertex="1" parent="1">
          <mxGeometry x="240" y="800" width="110" height="50" as="geometry" />
        </mxCell>
        <mxCell id="FIlMtWc95_Qz1W8rLRXP-10" value="View Contracts&amp;nbsp;&lt;div&gt;Table&lt;/div&gt;" style="html=1;whiteSpace=wrap;labelBackgroundColor=none;fillColor=#5D7F99;strokeColor=#D0CEE2;fontColor=#1A1A1A;" vertex="1" parent="1">
          <mxGeometry x="414" y="770" width="110" height="50" as="geometry" />
        </mxCell>
        <mxCell id="FIlMtWc95_Qz1W8rLRXP-11" value="User role change" style="html=1;whiteSpace=wrap;labelBackgroundColor=none;fillColor=#5D7F99;strokeColor=#D0CEE2;fontColor=#1A1A1A;" vertex="1" parent="1">
          <mxGeometry x="414" y="220" width="110" height="50" as="geometry" />
        </mxCell>
        <mxCell id="FIlMtWc95_Qz1W8rLRXP-12" value="Upload Contract" style="html=1;whiteSpace=wrap;labelBackgroundColor=none;fillColor=#5D7F99;strokeColor=#D0CEE2;fontColor=#1A1A1A;" vertex="1" parent="1">
          <mxGeometry x="414" y="660" width="110" height="50" as="geometry" />
        </mxCell>
        <mxCell id="FIlMtWc95_Qz1W8rLRXP-13" value="Download Contract&lt;div&gt;Document&lt;/div&gt;" style="html=1;whiteSpace=wrap;labelBackgroundColor=none;fillColor=#5D7F99;strokeColor=#D0CEE2;fontColor=#1A1A1A;" vertex="1" parent="1">
          <mxGeometry x="414" y="890" width="110" height="50" as="geometry" />
        </mxCell>
        <mxCell id="FIlMtWc95_Qz1W8rLRXP-16" value="" style="endArrow=classic;html=1;rounded=0;entryX=0;entryY=0.5;entryDx=0;entryDy=0;labelBackgroundColor=none;strokeColor=#736CA8;fontColor=default;" edge="1" parent="1" source="FIlMtWc95_Qz1W8rLRXP-1" target="FIlMtWc95_Qz1W8rLRXP-5">
          <mxGeometry width="50" height="50" relative="1" as="geometry">
            <mxPoint x="460" y="600" as="sourcePoint" />
            <mxPoint x="510" y="550" as="targetPoint" />
          </mxGeometry>
        </mxCell>
        <mxCell id="FIlMtWc95_Qz1W8rLRXP-17" value="" style="endArrow=classic;html=1;rounded=0;entryX=0;entryY=0.5;entryDx=0;entryDy=0;labelBackgroundColor=none;strokeColor=#736CA8;fontColor=default;" edge="1" parent="1" target="FIlMtWc95_Qz1W8rLRXP-9">
          <mxGeometry width="50" height="50" relative="1" as="geometry">
            <mxPoint x="180" y="560" as="sourcePoint" />
            <mxPoint x="250" y="570" as="targetPoint" />
            <Array as="points">
              <mxPoint x="180" y="825" />
            </Array>
          </mxGeometry>
        </mxCell>
        <mxCell id="FIlMtWc95_Qz1W8rLRXP-18" value="" style="endArrow=classic;html=1;rounded=0;entryX=0;entryY=0.5;entryDx=0;entryDy=0;labelBackgroundColor=none;strokeColor=#736CA8;fontColor=default;" edge="1" parent="1" target="FIlMtWc95_Qz1W8rLRXP-3">
          <mxGeometry width="50" height="50" relative="1" as="geometry">
            <mxPoint x="180" y="560" as="sourcePoint" />
            <mxPoint x="250" y="835" as="targetPoint" />
            <Array as="points">
              <mxPoint x="180" y="275" />
            </Array>
          </mxGeometry>
        </mxCell>
        <mxCell id="FIlMtWc95_Qz1W8rLRXP-19" value="" style="endArrow=classic;html=1;rounded=0;entryX=0;entryY=0.5;entryDx=0;entryDy=0;exitX=1;exitY=0.5;exitDx=0;exitDy=0;labelBackgroundColor=none;strokeColor=#736CA8;fontColor=default;" edge="1" parent="1" source="FIlMtWc95_Qz1W8rLRXP-3" target="FIlMtWc95_Qz1W8rLRXP-11">
          <mxGeometry width="50" height="50" relative="1" as="geometry">
            <mxPoint x="150" y="510" as="sourcePoint" />
            <mxPoint x="250" y="510" as="targetPoint" />
          </mxGeometry>
        </mxCell>
        <mxCell id="FIlMtWc95_Qz1W8rLRXP-20" value="" style="endArrow=classic;html=1;rounded=0;entryX=0;entryY=0.5;entryDx=0;entryDy=0;exitX=1;exitY=0.5;exitDx=0;exitDy=0;labelBackgroundColor=none;strokeColor=#736CA8;fontColor=default;" edge="1" parent="1" source="FIlMtWc95_Qz1W8rLRXP-3" target="FIlMtWc95_Qz1W8rLRXP-4">
          <mxGeometry width="50" height="50" relative="1" as="geometry">
            <mxPoint x="360" y="285" as="sourcePoint" />
            <mxPoint x="424" y="255" as="targetPoint" />
          </mxGeometry>
        </mxCell>
        <mxCell id="FIlMtWc95_Qz1W8rLRXP-21" value="" style="endArrow=classic;html=1;rounded=0;entryX=0;entryY=0.5;entryDx=0;entryDy=0;exitX=1;exitY=0.5;exitDx=0;exitDy=0;labelBackgroundColor=none;strokeColor=#736CA8;fontColor=default;" edge="1" parent="1" source="FIlMtWc95_Qz1W8rLRXP-5" target="FIlMtWc95_Qz1W8rLRXP-6">
          <mxGeometry width="50" height="50" relative="1" as="geometry">
            <mxPoint x="360" y="345" as="sourcePoint" />
            <mxPoint x="424" y="375" as="targetPoint" />
          </mxGeometry>
        </mxCell>
        <mxCell id="FIlMtWc95_Qz1W8rLRXP-22" value="" style="endArrow=classic;html=1;rounded=0;entryX=0;entryY=0.5;entryDx=0;entryDy=0;exitX=1;exitY=0.5;exitDx=0;exitDy=0;labelBackgroundColor=none;strokeColor=#736CA8;fontColor=default;" edge="1" parent="1" source="FIlMtWc95_Qz1W8rLRXP-5" target="FIlMtWc95_Qz1W8rLRXP-2">
          <mxGeometry width="50" height="50" relative="1" as="geometry">
            <mxPoint x="360" y="570" as="sourcePoint" />
            <mxPoint x="424" y="505" as="targetPoint" />
          </mxGeometry>
        </mxCell>
        <mxCell id="FIlMtWc95_Qz1W8rLRXP-23" value="" style="endArrow=classic;html=1;rounded=0;entryX=0;entryY=0.5;entryDx=0;entryDy=0;exitX=1;exitY=0.5;exitDx=0;exitDy=0;labelBackgroundColor=none;strokeColor=#736CA8;fontColor=default;" edge="1" parent="1" source="FIlMtWc95_Qz1W8rLRXP-5" target="FIlMtWc95_Qz1W8rLRXP-7">
          <mxGeometry width="50" height="50" relative="1" as="geometry">
            <mxPoint x="360" y="570" as="sourcePoint" />
            <mxPoint x="424" y="570" as="targetPoint" />
          </mxGeometry>
        </mxCell>
        <mxCell id="FIlMtWc95_Qz1W8rLRXP-24" value="" style="endArrow=classic;html=1;rounded=0;entryX=0;entryY=0.5;entryDx=0;entryDy=0;exitX=1;exitY=0.5;exitDx=0;exitDy=0;labelBackgroundColor=none;strokeColor=#736CA8;fontColor=default;" edge="1" parent="1" source="FIlMtWc95_Qz1W8rLRXP-5" target="FIlMtWc95_Qz1W8rLRXP-12">
          <mxGeometry width="50" height="50" relative="1" as="geometry">
            <mxPoint x="360" y="570" as="sourcePoint" />
            <mxPoint x="424" y="635" as="targetPoint" />
          </mxGeometry>
        </mxCell>
        <mxCell id="FIlMtWc95_Qz1W8rLRXP-25" value="" style="endArrow=classic;html=1;rounded=0;entryX=0;entryY=0.5;entryDx=0;entryDy=0;exitX=1;exitY=0.5;exitDx=0;exitDy=0;labelBackgroundColor=none;strokeColor=#736CA8;fontColor=default;" edge="1" parent="1" source="FIlMtWc95_Qz1W8rLRXP-9" target="FIlMtWc95_Qz1W8rLRXP-10">
          <mxGeometry width="50" height="50" relative="1" as="geometry">
            <mxPoint x="360" y="570" as="sourcePoint" />
            <mxPoint x="424" y="695" as="targetPoint" />
          </mxGeometry>
        </mxCell>
        <mxCell id="FIlMtWc95_Qz1W8rLRXP-26" value="" style="endArrow=classic;html=1;rounded=0;entryX=0;entryY=0.5;entryDx=0;entryDy=0;exitX=1;exitY=0.5;exitDx=0;exitDy=0;labelBackgroundColor=none;strokeColor=#736CA8;fontColor=default;" edge="1" parent="1" source="FIlMtWc95_Qz1W8rLRXP-9" target="FIlMtWc95_Qz1W8rLRXP-8">
          <mxGeometry width="50" height="50" relative="1" as="geometry">
            <mxPoint x="360" y="835" as="sourcePoint" />
            <mxPoint x="424" y="805" as="targetPoint" />
          </mxGeometry>
        </mxCell>
        <mxCell id="FIlMtWc95_Qz1W8rLRXP-27" value="" style="endArrow=classic;html=1;rounded=0;entryX=0;entryY=0.5;entryDx=0;entryDy=0;exitX=1;exitY=0.5;exitDx=0;exitDy=0;labelBackgroundColor=none;strokeColor=#736CA8;fontColor=default;" edge="1" parent="1" source="FIlMtWc95_Qz1W8rLRXP-9" target="FIlMtWc95_Qz1W8rLRXP-13">
          <mxGeometry width="50" height="50" relative="1" as="geometry">
            <mxPoint x="360" y="835" as="sourcePoint" />
            <mxPoint x="424" y="865" as="targetPoint" />
          </mxGeometry>
        </mxCell>
        <mxCell id="FIlMtWc95_Qz1W8rLRXP-28" value="Create Contract&lt;div&gt;Types&lt;/div&gt;" style="html=1;whiteSpace=wrap;labelBackgroundColor=none;fillColor=#5D7F99;strokeColor=#D0CEE2;fontColor=#1A1A1A;" vertex="1" parent="1">
          <mxGeometry x="414" y="410" width="110" height="50" as="geometry" />
        </mxCell>
        <mxCell id="FIlMtWc95_Qz1W8rLRXP-29" value="" style="endArrow=classic;html=1;rounded=0;entryX=0;entryY=0.5;entryDx=0;entryDy=0;exitX=1;exitY=0.5;exitDx=0;exitDy=0;labelBackgroundColor=none;strokeColor=#736CA8;fontColor=default;" edge="1" parent="1" source="FIlMtWc95_Qz1W8rLRXP-5" target="FIlMtWc95_Qz1W8rLRXP-28">
          <mxGeometry width="50" height="50" relative="1" as="geometry">
            <mxPoint x="360" y="570" as="sourcePoint" />
            <mxPoint x="424" y="505" as="targetPoint" />
          </mxGeometry>
        </mxCell>
      </root>
    </mxGraphModel>
  </diagram>
</mxfile>
